<?xml version="1.0" encoding="UTF-8" standalone="no"?>
<svg
   xmlns:dc="http://purl.org/dc/elements/1.1/"
   xmlns:cc="http://creativecommons.org/ns#"
   xmlns:rdf="http://www.w3.org/1999/02/22-rdf-syntax-ns#"
   xmlns:svg="http://www.w3.org/2000/svg"
   xmlns="http://www.w3.org/2000/svg"
   xmlns:sodipodi="http://sodipodi.sourceforge.net/DTD/sodipodi-0.dtd"
   xmlns:inkscape="http://www.inkscape.org/namespaces/inkscape"
   version="1.0"
   width="241"
   height="58"
   viewBox="0 0 2410 580"
   preserveAspectRatio="xMidYMid meet"
   id="svg62"
   sodipodi:docname="blackpink logo.svg"
   inkscape:version="0.92.5 (2060ec1f9f, 2020-04-08)">
  <metadata
     id="metadata68">
    <rdf:RDF>
      <cc:Work
         rdf:about="">
        <dc:format>image/svg+xml</dc:format>
        <dc:type
           rdf:resource="http://purl.org/dc/dcmitype/StillImage" />
        <dc:title></dc:title>
      </cc:Work>
    </rdf:RDF>
  </metadata>
  <defs
     id="defs66" />
  <sodipodi:namedview
     pagecolor="#000000"
     bordercolor="#666666"
     borderopacity="1"
     objecttolerance="10"
     gridtolerance="10"
     guidetolerance="10"
     inkscape:pageopacity="0"
     inkscape:pageshadow="2"
     inkscape:window-width="1920"
     inkscape:window-height="1017"
     id="namedview64"
     showgrid="false"
     inkscape:zoom="4.8833333"
     inkscape:cx="128.74244"
     inkscape:cy="64.250251"
     inkscape:window-x="-8"
     inkscape:window-y="-8"
     inkscape:window-maximized="1"
     inkscape:current-layer="svg62" />
  <g
     id="layer101"
     transform="matrix(0.21598771,0,0,0.21598771,-86.298528,-222.3544)"
     style="fill:#000000;stroke:none" />
  <g
     id="layer102"
     transform="matrix(0.21598771,0,0,0.21598771,-86.298528,-222.3544)"
     style="fill:#f5a7bc;stroke:none">
    <path
       d="M 450,2375 V 1060 h 5550 5550 V 2375 3690 H 6000 450 Z m 10884,1079 c 8,-20 8,-2148 0,-2168 -6,-15 -485,-16 -5335,-16 H 670 v 1093 c 0,602 3,1097 7,1100 3,4 2401,7 5329,7 4844,0 5322,-1 5328,-16 z"
       id="path41"
       inkscape:connector-curvature="0" />
    <path
       d="m 4806,2924 c -60,-13 -108,-34 -211,-91 -12,-7 -41,-33 -65,-59 -41,-45 -41,-46 -23,-66 10,-11 59,-51 109,-89 l 91,-69 36,33 c 51,49 103,70 180,75 57,4 75,1 120,-22 61,-31 83,-49 118,-96 74,-99 73,-246 -1,-340 -76,-96 -185,-137 -288,-108 -31,8 -71,21 -88,29 -36,14 -21,23 -154,-100 -36,-33 -68,-61 -72,-61 -5,0 -8,-4 -8,-9 0,-9 114,-91 126,-91 3,0 20,-6 37,-14 86,-38 105,-41 222,-41 105,0 129,3 192,27 228,84 375,293 375,533 0,82 -12,146 -40,215 -107,264 -374,404 -656,344 z"
       id="path43"
       inkscape:connector-curvature="0" />
    <path
       d="m 1180,2370 v -540 h 304 c 290,0 307,1 363,22 162,62 238,248 165,403 -16,33 -36,66 -45,74 -24,19 -21,28 18,63 48,41 81,101 94,169 27,131 -45,261 -179,323 l -55,26 h -332 -332 z m 535,308 c 72,-33 84,-134 23,-188 -33,-30 -34,-30 -160,-30 h -128 v 115 115 h 120 c 70,0 130,-5 145,-12 z m 21,-450 c 43,-48 46,-95 9,-144 -34,-44 -79,-56 -195,-52 l -95,3 -3,118 -3,119 126,-4 127,-3 z"
       id="path45"
       inkscape:connector-curvature="0" />
    <path
       d="m 2300,2370 v -540 h 145 145 v 410 410 h 285 285 v 130 130 h -430 -430 z"
       id="path47"
       inkscape:connector-curvature="0" />
    <path
       d="m 3330,2907 c 0,-4 35,-101 60,-167 12,-30 30,-80 40,-110 10,-30 28,-80 40,-110 12,-30 25,-66 30,-80 4,-14 31,-88 60,-165 29,-77 59,-158 66,-180 8,-22 19,-49 23,-60 5,-11 17,-42 26,-70 10,-27 24,-64 31,-82 8,-17 14,-36 14,-42 0,-7 42,-11 128,-11 h 128 l 26,73 c 69,191 88,243 98,259 5,10 10,23 10,30 0,6 14,48 31,92 17,45 38,99 46,121 9,22 19,49 23,60 4,11 15,43 25,70 9,28 20,59 24,70 44,111 82,216 101,278 l 9,27 h -144 -143 l -38,-117 c -21,-65 -39,-120 -40,-123 0,-3 -3,-12 -7,-20 -3,-8 -13,-42 -22,-75 -9,-33 -21,-69 -25,-80 -5,-11 -21,-60 -36,-110 -15,-49 -31,-94 -35,-99 -5,-6 -9,-20 -9,-32 0,-12 -6,-27 -14,-33 -11,-9 -25,24 -76,181 -34,106 -85,263 -114,348 l -51,155 -143,3 c -78,1 -142,1 -142,-1 z"
       id="path49"
       inkscape:connector-curvature="0" />
    <path
       d="m 5670,2370 v -540 h 140 140 v 180 c 0,99 4,180 9,180 5,0 25,-20 45,-45 20,-24 42,-50 49,-57 13,-14 137,-166 149,-183 4,-5 20,-25 35,-43 l 28,-33 172,3 171,3 -110,130 c -60,72 -127,148 -147,170 -62,66 -171,196 -171,204 0,5 8,18 18,30 9,11 30,38 45,59 16,20 51,66 78,102 27,36 63,85 81,110 18,25 37,50 43,56 5,6 17,22 25,34 8,13 26,37 40,54 14,17 40,52 58,79 l 33,47 h -168 -168 l -25,-31 c -14,-17 -35,-42 -47,-55 -13,-13 -23,-26 -23,-29 0,-3 -10,-16 -21,-28 -12,-12 -33,-38 -48,-57 -14,-19 -36,-46 -48,-60 -56,-64 -73,-86 -73,-92 0,-5 -7,-8 -15,-8 -13,0 -15,27 -15,180 v 180 h -140 -140 z"
       id="path51"
       inkscape:connector-curvature="0" />
    <path
       d="m 7020,2370 v -540 h 273 c 291,0 329,5 422,53 79,40 147,124 173,213 50,172 -58,375 -238,446 -45,18 -81,23 -202,26 l -148,4 v 169 169 h -140 -140 z m 548,-90 c 43,-32 60,-86 42,-132 -29,-72 -66,-88 -201,-88 h -99 v 126 126 l 113,-4 c 101,-3 115,-6 145,-28 z"
       id="path53"
       inkscape:connector-curvature="0" />
    <path
       d="m 8110,2370 v -540 h 140 140 v 540 540 h -140 -139 z"
       id="path55"
       inkscape:connector-curvature="0" />
    <path
       d="m 8660,2370 v -540 h 135 135 v 278 c 0,152 4,283 8,290 6,9 18,-1 40,-32 18,-24 32,-47 32,-50 0,-3 26,-45 59,-93 49,-75 158,-240 235,-360 l 21,-33 h 138 137 v 540 540 h -135 -135 v -290 c 0,-159 -3,-290 -7,-290 -10,0 -63,75 -63,89 0,6 -4,11 -8,11 -4,0 -16,15 -27,33 -10,17 -66,104 -124,192 -58,88 -110,167 -116,176 -5,10 -19,31 -30,48 l -19,31 h -138 -137 z"
       id="path57"
       inkscape:connector-curvature="0" />
    <path
       d="m 9880,2370 v -540 h 145 145 v 183 l 1,182 37,-41 c 20,-22 48,-56 62,-74 26,-35 163,-202 191,-233 14,-16 34,-17 187,-15 l 171,3 -116,135 c -63,74 -129,151 -147,170 -36,40 -135,157 -155,182 -11,15 -9,22 10,50 13,18 26,35 29,38 4,3 31,39 60,80 29,41 56,77 59,80 3,3 22,26 41,53 19,26 67,89 105,140 39,50 78,104 88,120 l 17,27 h -165 c -186,0 -164,8 -242,-87 -17,-21 -39,-48 -50,-61 -10,-12 -29,-36 -43,-53 -14,-17 -30,-37 -35,-43 -6,-6 -28,-35 -50,-63 -21,-29 -43,-53 -47,-53 -4,0 -8,81 -8,180 v 180 h -145 -145 z"
       id="path59"
       inkscape:connector-curvature="0" />
  </g>
</svg>
