<?xml version="1.0" encoding="utf-8"?>
<!-- Generator: Adobe Illustrator 24.0.1, SVG Export Plug-In . SVG Version: 6.00 Build 0)  -->
<svg version="1.1"
	 id="svg2" xmlns:cc="http://creativecommons.org/ns#" xmlns:dc="http://purl.org/dc/elements/1.1/" xmlns:rdf="http://www.w3.org/1999/02/22-rdf-syntax-ns#" xmlns:svg="http://www.w3.org/2000/svg"
	 xmlns="http://www.w3.org/2000/svg" xmlns:xlink="http://www.w3.org/1999/xlink" x="0px" y="0px" viewBox="0 0 400 400"
	 style="enable-background:new 0 0 400 400;" xml:space="preserve">
<style type="text/css">
	.st0{filter:url(#filter3315);}
	.st1{opacity:0.5;}
	.st2{fill:#F5A6B9;}
	.st3{fill:none;stroke:#F4B8C9;stroke-width:3.562;}
	.st4{fill:url(#path3193_2_);}
	.st5{fill:url(#path3193_3_);}
	.st6{fill:none;stroke:#000000;stroke-width:3;}
</style>
<filter  id="filter3315">
	<feGaussianBlur  id="feGaussianBlur3317" stdDeviation="3.7"></feGaussianBlur>
</filter>
<g id="use31" transform="translate(2.71429,4)" class="st0">
	<g id="path3191_2_">
		<g class="st1">
			<path d="M202.7,19c-102.1,0-185,82.9-185,185s82.9,185,185,185s185-82.9,185-185S304.8,19,202.7,19z M202.7,198.8
				c2.9,0,5.2,2.3,5.2,5.2c0,2.9-2.3,5.2-5.2,5.2c-2.9,0-5.2-2.3-5.2-5.2C197.5,201.1,199.8,198.8,202.7,198.8z"/>
		</g>
	</g>
</g>
<path id="path3191_1_" class="st2" d="M200,15C97.9,15,15,97.9,15,200s82.9,185,185,185s185-82.9,185-185S302.1,15,200,15z
	 M200,194.8c2.9,0,5.2,2.3,5.2,5.2c0,2.9-2.3,5.2-5.2,5.2c-2.9,0-5.2-2.3-5.2-5.2C194.8,197.1,197.1,194.8,200,194.8z"/>
<path id="path3271" d="M200,132.7c-37.2,0-67.3,30.2-67.3,67.3s30.2,67.3,67.3,67.3s67.3-30.2,67.3-67.3S237.2,132.7,200,132.7z
	 M200,195.6c2.5,0,4.4,2,4.4,4.4s-2,4.4-4.4,4.4s-4.4-2-4.4-4.4S197.5,195.6,200,195.6z"/>
<path id="path3176" class="st3" d="M200,16.8c101.2,0,183.2,82.1,183.2,183.2c0,101.2-82.1,183.2-183.2,183.2S16.8,301.2,16.8,200
	S98.8,16.8,200,16.8z"/>
<g id="use3151" transform="rotate(180,200,200)">
	
		<radialGradient id="path3193_2_" cx="-449.1854" cy="857.8116" r="92.5" gradientTransform="matrix(0.8696 -0.8696 -1.9615 -1.9615 2454.6299 1673.4163)" gradientUnits="userSpaceOnUse">
		<stop  offset="0" style="stop-color:#FFFFFF"/>
		<stop  offset="1" style="stop-color:#FFFFFF;stop-opacity:0"/>
	</radialGradient>
	<path id="path3193" class="st4" d="M293.6,200c0,51.7-41.9,93.6-93.6,93.6v87.8c100.1,0,181.4-81.3,181.4-181.4H293.6z"/>
</g>
<radialGradient id="path3193_3_" cx="304.0438" cy="1560.85" r="92.5" gradientTransform="matrix(-0.8696 0.8696 1.9615 1.9615 -2778.6299 -3307.4163)" gradientUnits="userSpaceOnUse">
	<stop  offset="0" style="stop-color:#FFFFFF"/>
	<stop  offset="1" style="stop-color:#FFFFFF;stop-opacity:0"/>
</radialGradient>
<path id="path3193_1_" class="st5" d="M106.4,200c0-51.7,41.9-93.6,93.6-93.6V18.6C99.9,18.6,18.6,99.9,18.6,200H106.4z"/>
<path id="path3215" class="st6" d="M200,132.7c37.2,0,67.3,30.1,67.3,67.3s-30.1,67.3-67.3,67.3s-67.3-30.1-67.3-67.3
	S162.8,132.7,200,132.7z"/>
</svg>
